<mxfile host="app.diagrams.net" modified="2021-11-21T18:02:31.643Z" agent="5.0 (Windows NT 10.0; Win64; x64) AppleWebKit/537.36 (KHTML, like Gecko) Chrome/96.0.4664.45 Safari/537.36" etag="mRfry0wIE9Vr1IKBce5G" version="15.8.3" type="github">
  <diagram id="3cRwI3dYeH3IzVVSULYQ" name="Page-1">
    <mxGraphModel dx="869" dy="482" grid="1" gridSize="10" guides="1" tooltips="1" connect="1" arrows="0" fold="1" page="1" pageScale="1" pageWidth="850" pageHeight="1100" math="0" shadow="0">
      <root>
        <mxCell id="0" />
        <mxCell id="1" parent="0" />
        <mxCell id="pi_QooVx41f_XIVLRQMf-53" style="edgeStyle=orthogonalEdgeStyle;rounded=0;orthogonalLoop=1;jettySize=auto;html=1;exitX=0.5;exitY=1;exitDx=0;exitDy=0;entryX=0.5;entryY=0;entryDx=0;entryDy=0;" edge="1" parent="1" source="pi_QooVx41f_XIVLRQMf-33" target="pi_QooVx41f_XIVLRQMf-51">
          <mxGeometry relative="1" as="geometry" />
        </mxCell>
        <mxCell id="pi_QooVx41f_XIVLRQMf-33" value="start" style="ellipse;whiteSpace=wrap;html=1;" vertex="1" parent="1">
          <mxGeometry x="320" y="520" width="120" height="40" as="geometry" />
        </mxCell>
        <mxCell id="pi_QooVx41f_XIVLRQMf-44" style="edgeStyle=orthogonalEdgeStyle;rounded=0;orthogonalLoop=1;jettySize=auto;html=1;exitX=1;exitY=0.5;exitDx=0;exitDy=0;entryX=0.567;entryY=0;entryDx=0;entryDy=0;entryPerimeter=0;" edge="1" parent="1" source="pi_QooVx41f_XIVLRQMf-35" target="pi_QooVx41f_XIVLRQMf-37">
          <mxGeometry relative="1" as="geometry" />
        </mxCell>
        <mxCell id="pi_QooVx41f_XIVLRQMf-45" style="edgeStyle=orthogonalEdgeStyle;rounded=0;orthogonalLoop=1;jettySize=auto;html=1;exitX=0;exitY=0.5;exitDx=0;exitDy=0;entryX=0.583;entryY=0;entryDx=0;entryDy=0;entryPerimeter=0;" edge="1" parent="1" source="pi_QooVx41f_XIVLRQMf-35" target="pi_QooVx41f_XIVLRQMf-36">
          <mxGeometry relative="1" as="geometry" />
        </mxCell>
        <mxCell id="pi_QooVx41f_XIVLRQMf-35" value="Is command for relay?" style="rhombus;whiteSpace=wrap;html=1;" vertex="1" parent="1">
          <mxGeometry x="320" y="700" width="120" height="80" as="geometry" />
        </mxCell>
        <mxCell id="pi_QooVx41f_XIVLRQMf-46" style="edgeStyle=orthogonalEdgeStyle;rounded=0;orthogonalLoop=1;jettySize=auto;html=1;exitX=0.5;exitY=1;exitDx=0;exitDy=0;entryX=0.5;entryY=0;entryDx=0;entryDy=0;" edge="1" parent="1" source="pi_QooVx41f_XIVLRQMf-36" target="pi_QooVx41f_XIVLRQMf-39">
          <mxGeometry relative="1" as="geometry" />
        </mxCell>
        <mxCell id="pi_QooVx41f_XIVLRQMf-36" value="Read data from sensor" style="shape=parallelogram;perimeter=parallelogramPerimeter;whiteSpace=wrap;html=1;fixedSize=1;" vertex="1" parent="1">
          <mxGeometry x="174" y="780" width="160" height="60" as="geometry" />
        </mxCell>
        <mxCell id="pi_QooVx41f_XIVLRQMf-37" value="Switch relay according to message from Arduino" style="shape=parallelogram;perimeter=parallelogramPerimeter;whiteSpace=wrap;html=1;fixedSize=1;" vertex="1" parent="1">
          <mxGeometry x="408" y="780" width="165" height="60" as="geometry" />
        </mxCell>
        <mxCell id="pi_QooVx41f_XIVLRQMf-47" style="edgeStyle=orthogonalEdgeStyle;rounded=0;orthogonalLoop=1;jettySize=auto;html=1;exitX=1;exitY=0.5;exitDx=0;exitDy=0;entryX=0;entryY=0.5;entryDx=0;entryDy=0;" edge="1" parent="1" source="pi_QooVx41f_XIVLRQMf-39" target="pi_QooVx41f_XIVLRQMf-40">
          <mxGeometry relative="1" as="geometry" />
        </mxCell>
        <mxCell id="pi_QooVx41f_XIVLRQMf-39" value="check for any sensor abnormalities" style="rhombus;whiteSpace=wrap;html=1;" vertex="1" parent="1">
          <mxGeometry x="170" y="870" width="150" height="80" as="geometry" />
        </mxCell>
        <mxCell id="pi_QooVx41f_XIVLRQMf-81" style="edgeStyle=elbowEdgeStyle;rounded=0;orthogonalLoop=1;jettySize=auto;elbow=vertical;html=1;exitX=0.5;exitY=1;exitDx=0;exitDy=0;entryX=0.5;entryY=0;entryDx=0;entryDy=0;" edge="1" parent="1" source="pi_QooVx41f_XIVLRQMf-40" target="pi_QooVx41f_XIVLRQMf-41">
          <mxGeometry relative="1" as="geometry" />
        </mxCell>
        <mxCell id="pi_QooVx41f_XIVLRQMf-40" value="Send control message to Arduino and alert to third party number" style="rounded=0;whiteSpace=wrap;html=1;" vertex="1" parent="1">
          <mxGeometry x="420" y="880" width="120" height="60" as="geometry" />
        </mxCell>
        <mxCell id="pi_QooVx41f_XIVLRQMf-41" value="stop" style="ellipse;whiteSpace=wrap;html=1;" vertex="1" parent="1">
          <mxGeometry x="420" y="970" width="120" height="40" as="geometry" />
        </mxCell>
        <mxCell id="pi_QooVx41f_XIVLRQMf-58" style="edgeStyle=orthogonalEdgeStyle;rounded=0;orthogonalLoop=1;jettySize=auto;html=1;exitX=0.5;exitY=1;exitDx=0;exitDy=0;entryX=0.5;entryY=0;entryDx=0;entryDy=0;" edge="1" parent="1" source="pi_QooVx41f_XIVLRQMf-51" target="pi_QooVx41f_XIVLRQMf-35">
          <mxGeometry relative="1" as="geometry">
            <Array as="points">
              <mxPoint x="380" y="670" />
              <mxPoint x="380" y="670" />
            </Array>
          </mxGeometry>
        </mxCell>
        <mxCell id="pi_QooVx41f_XIVLRQMf-51" value="Initializing GSM to send and receive SMS" style="rounded=0;whiteSpace=wrap;html=1;" vertex="1" parent="1">
          <mxGeometry x="300" y="600" width="160" height="60" as="geometry" />
        </mxCell>
        <mxCell id="pi_QooVx41f_XIVLRQMf-73" value="" style="endArrow=none;html=1;rounded=0;elbow=vertical;" edge="1" parent="1">
          <mxGeometry width="50" height="50" relative="1" as="geometry">
            <mxPoint x="120" y="910" as="sourcePoint" />
            <mxPoint x="380" y="680" as="targetPoint" />
            <Array as="points">
              <mxPoint x="120" y="680" />
            </Array>
          </mxGeometry>
        </mxCell>
        <mxCell id="pi_QooVx41f_XIVLRQMf-74" value="" style="endArrow=classic;html=1;rounded=0;elbow=vertical;" edge="1" parent="1">
          <mxGeometry width="50" height="50" relative="1" as="geometry">
            <mxPoint x="270" y="680" as="sourcePoint" />
            <mxPoint x="380" y="680" as="targetPoint" />
            <Array as="points">
              <mxPoint x="380" y="680" />
            </Array>
          </mxGeometry>
        </mxCell>
        <mxCell id="pi_QooVx41f_XIVLRQMf-75" value="" style="endArrow=none;html=1;rounded=0;elbow=vertical;entryX=0;entryY=0.5;entryDx=0;entryDy=0;" edge="1" parent="1" target="pi_QooVx41f_XIVLRQMf-39">
          <mxGeometry width="50" height="50" relative="1" as="geometry">
            <mxPoint x="120" y="910" as="sourcePoint" />
            <mxPoint x="430" y="750" as="targetPoint" />
          </mxGeometry>
        </mxCell>
        <mxCell id="pi_QooVx41f_XIVLRQMf-77" value="" style="endArrow=none;html=1;rounded=0;elbow=vertical;" edge="1" parent="1">
          <mxGeometry width="50" height="50" relative="1" as="geometry">
            <mxPoint x="640" y="680" as="sourcePoint" />
            <mxPoint x="380" y="680" as="targetPoint" />
          </mxGeometry>
        </mxCell>
        <mxCell id="pi_QooVx41f_XIVLRQMf-78" value="" style="endArrow=classic;html=1;rounded=0;elbow=vertical;" edge="1" parent="1">
          <mxGeometry width="50" height="50" relative="1" as="geometry">
            <mxPoint x="520" y="680" as="sourcePoint" />
            <mxPoint x="380" y="680" as="targetPoint" />
          </mxGeometry>
        </mxCell>
        <mxCell id="pi_QooVx41f_XIVLRQMf-82" style="edgeStyle=elbowEdgeStyle;rounded=0;orthogonalLoop=1;jettySize=auto;elbow=vertical;html=1;exitX=0.5;exitY=0;exitDx=0;exitDy=0;fontFamily=Times New Roman;fontSize=11;" edge="1" parent="1" source="pi_QooVx41f_XIVLRQMf-33" target="pi_QooVx41f_XIVLRQMf-33">
          <mxGeometry relative="1" as="geometry" />
        </mxCell>
        <mxCell id="pi_QooVx41f_XIVLRQMf-83" value="YES" style="text;html=1;align=center;verticalAlign=middle;resizable=0;points=[];autosize=1;strokeColor=none;fillColor=none;fontSize=11;fontFamily=Times New Roman;" vertex="1" parent="1">
          <mxGeometry x="448" y="723" width="31" height="17" as="geometry" />
        </mxCell>
        <mxCell id="pi_QooVx41f_XIVLRQMf-84" value="NO" style="text;html=1;align=center;verticalAlign=middle;resizable=0;points=[];autosize=1;strokeColor=none;fillColor=none;fontSize=11;fontFamily=Times New Roman;" vertex="1" parent="1">
          <mxGeometry x="285" y="722" width="26" height="17" as="geometry" />
        </mxCell>
        <mxCell id="pi_QooVx41f_XIVLRQMf-87" value="" style="endArrow=none;html=1;rounded=0;fontFamily=Times New Roman;fontSize=11;elbow=vertical;" edge="1" parent="1">
          <mxGeometry width="50" height="50" relative="1" as="geometry">
            <mxPoint x="640" y="810" as="sourcePoint" />
            <mxPoint x="640" y="680" as="targetPoint" />
          </mxGeometry>
        </mxCell>
        <mxCell id="pi_QooVx41f_XIVLRQMf-88" value="" style="endArrow=none;html=1;rounded=0;fontFamily=Times New Roman;fontSize=11;elbow=vertical;exitX=1;exitY=0.5;exitDx=0;exitDy=0;" edge="1" parent="1" source="pi_QooVx41f_XIVLRQMf-37">
          <mxGeometry width="50" height="50" relative="1" as="geometry">
            <mxPoint x="380" y="750" as="sourcePoint" />
            <mxPoint x="640" y="810" as="targetPoint" />
          </mxGeometry>
        </mxCell>
        <mxCell id="pi_QooVx41f_XIVLRQMf-89" value="" style="endArrow=classic;html=1;rounded=0;fontFamily=Times New Roman;fontSize=11;elbow=vertical;entryX=1;entryY=0.5;entryDx=0;entryDy=0;" edge="1" parent="1" target="pi_QooVx41f_XIVLRQMf-51">
          <mxGeometry width="50" height="50" relative="1" as="geometry">
            <mxPoint x="720" y="630" as="sourcePoint" />
            <mxPoint x="430" y="770" as="targetPoint" />
          </mxGeometry>
        </mxCell>
        <mxCell id="pi_QooVx41f_XIVLRQMf-90" value="" style="endArrow=none;html=1;rounded=0;fontFamily=Times New Roman;fontSize=11;elbow=vertical;" edge="1" parent="1">
          <mxGeometry width="50" height="50" relative="1" as="geometry">
            <mxPoint x="720" y="910" as="sourcePoint" />
            <mxPoint x="720" y="630" as="targetPoint" />
          </mxGeometry>
        </mxCell>
        <mxCell id="pi_QooVx41f_XIVLRQMf-91" value="" style="endArrow=none;html=1;rounded=0;fontFamily=Times New Roman;fontSize=11;elbow=vertical;exitX=1;exitY=0.5;exitDx=0;exitDy=0;" edge="1" parent="1" source="pi_QooVx41f_XIVLRQMf-40">
          <mxGeometry width="50" height="50" relative="1" as="geometry">
            <mxPoint x="380" y="820" as="sourcePoint" />
            <mxPoint x="720" y="910" as="targetPoint" />
          </mxGeometry>
        </mxCell>
        <mxCell id="pi_QooVx41f_XIVLRQMf-92" value="NO" style="text;html=1;align=center;verticalAlign=middle;resizable=0;points=[];autosize=1;strokeColor=none;fillColor=none;fontSize=11;fontFamily=Times New Roman;" vertex="1" parent="1">
          <mxGeometry x="145" y="880" width="30" height="20" as="geometry" />
        </mxCell>
        <mxCell id="pi_QooVx41f_XIVLRQMf-94" value="YES" style="text;html=1;align=center;verticalAlign=middle;resizable=0;points=[];autosize=1;strokeColor=none;fillColor=none;fontSize=11;fontFamily=Times New Roman;" vertex="1" parent="1">
          <mxGeometry x="380" y="890" width="40" height="20" as="geometry" />
        </mxCell>
      </root>
    </mxGraphModel>
  </diagram>
</mxfile>
